<mxfile host="65bd71144e">
    <diagram id="gzKbh8bPQhgBl_x81qo_" name="无人艇载光电跟踪仪虚拟化方法流程图">
        <mxGraphModel dx="1095" dy="784" grid="1" gridSize="10" guides="1" tooltips="1" connect="1" arrows="1" fold="1" page="1" pageScale="1" pageWidth="850" pageHeight="1100" math="0" shadow="0">
            <root>
                <mxCell id="0"/>
                <mxCell id="1" parent="0"/>
                <mxCell id="2" value="&lt;span style=&quot;font-size: 25px;&quot;&gt;光电跟踪仪模型模块&lt;/span&gt;" style="rounded=0;whiteSpace=wrap;html=1;fillColor=#f8cecc;strokeColor=#b85450;" vertex="1" parent="1">
                    <mxGeometry x="290" y="60" width="260" height="60" as="geometry"/>
                </mxCell>
                <mxCell id="3" value="&lt;font style=&quot;&quot;&gt;&lt;font style=&quot;font-size: 25px;&quot;&gt;光学传感器参数确定模块&lt;/font&gt;&lt;br&gt;&lt;/font&gt;" style="rounded=0;whiteSpace=wrap;html=1;fillColor=#dae8fc;strokeColor=#6c8ebf;" vertex="1" parent="1">
                    <mxGeometry x="270" y="230" width="300" height="60" as="geometry"/>
                </mxCell>
                <mxCell id="4" value="&lt;font style=&quot;&quot;&gt;&lt;font style=&quot;font-size: 25px;&quot;&gt;虚拟环境建模模块&lt;/font&gt;&lt;br&gt;&lt;/font&gt;" style="rounded=0;whiteSpace=wrap;html=1;fillColor=#dae8fc;strokeColor=#6c8ebf;" vertex="1" parent="1">
                    <mxGeometry x="270" y="400" width="300" height="60" as="geometry"/>
                </mxCell>
                <mxCell id="5" value="&lt;font style=&quot;&quot;&gt;&lt;font style=&quot;font-size: 25px;&quot;&gt;仿真光电图像生成模块&lt;/font&gt;&lt;br&gt;&lt;/font&gt;" style="rounded=0;whiteSpace=wrap;html=1;fillColor=#dae8fc;strokeColor=#6c8ebf;" vertex="1" parent="1">
                    <mxGeometry x="275" y="570" width="300" height="60" as="geometry"/>
                </mxCell>
                <mxCell id="6" value="&lt;font style=&quot;&quot;&gt;&lt;span style=&quot;font-size: 25px;&quot;&gt;噪声和干扰模拟模块&lt;/span&gt;&lt;br&gt;&lt;/font&gt;" style="rounded=0;whiteSpace=wrap;html=1;fillColor=#dae8fc;strokeColor=#6c8ebf;" vertex="1" parent="1">
                    <mxGeometry x="270" y="740" width="300" height="60" as="geometry"/>
                </mxCell>
                <mxCell id="7" value="&lt;span style=&quot;font-size: 25px;&quot;&gt;光电跟踪仪性能评估与优化模块&lt;/span&gt;" style="rounded=0;whiteSpace=wrap;html=1;fillColor=#dae8fc;strokeColor=#6c8ebf;" vertex="1" parent="1">
                    <mxGeometry x="237.5" y="910" width="365" height="60" as="geometry"/>
                </mxCell>
                <mxCell id="8" value="&lt;span style=&quot;font-size: 25px;&quot;&gt;虚拟数据传输和接口模块&lt;/span&gt;" style="rounded=0;whiteSpace=wrap;html=1;fillColor=#dae8fc;strokeColor=#6c8ebf;" vertex="1" parent="1">
                    <mxGeometry x="237.5" y="1080" width="365" height="60" as="geometry"/>
                </mxCell>
                <mxCell id="9" value="&lt;span style=&quot;font-size: 25px;&quot;&gt;无人艇控制模块&lt;/span&gt;&lt;br&gt;&lt;font style=&quot;font-size: 22px;&quot;&gt;（接收虚拟数据，控制无人艇动作以跟踪目标）&lt;/font&gt;" style="rounded=0;whiteSpace=wrap;html=1;fillColor=#f8cecc;strokeColor=#b85450;" vertex="1" parent="1">
                    <mxGeometry x="140" y="1250" width="560" height="60" as="geometry"/>
                </mxCell>
                <mxCell id="10" value="" style="endArrow=classic;html=1;fontSize=25;strokeWidth=3;entryX=0.43;entryY=-0.017;entryDx=0;entryDy=0;entryPerimeter=0;" edge="1" parent="1" target="3">
                    <mxGeometry width="50" height="50" relative="1" as="geometry">
                        <mxPoint x="400" y="120" as="sourcePoint"/>
                        <mxPoint x="400" y="220" as="targetPoint"/>
                    </mxGeometry>
                </mxCell>
                <mxCell id="11" value="" style="endArrow=classic;html=1;fontSize=25;strokeWidth=3;entryX=0.43;entryY=-0.017;entryDx=0;entryDy=0;entryPerimeter=0;" edge="1" parent="1">
                    <mxGeometry width="50" height="50" relative="1" as="geometry">
                        <mxPoint x="401" y="290" as="sourcePoint"/>
                        <mxPoint x="400" y="398.98" as="targetPoint"/>
                    </mxGeometry>
                </mxCell>
                <mxCell id="12" value="" style="endArrow=classic;html=1;fontSize=25;strokeWidth=3;entryX=0.43;entryY=-0.017;entryDx=0;entryDy=0;entryPerimeter=0;" edge="1" parent="1">
                    <mxGeometry width="50" height="50" relative="1" as="geometry">
                        <mxPoint x="401" y="460" as="sourcePoint"/>
                        <mxPoint x="400" y="568.98" as="targetPoint"/>
                    </mxGeometry>
                </mxCell>
                <mxCell id="13" value="" style="endArrow=classic;html=1;fontSize=25;strokeWidth=3;entryX=0.43;entryY=-0.017;entryDx=0;entryDy=0;entryPerimeter=0;" edge="1" parent="1">
                    <mxGeometry width="50" height="50" relative="1" as="geometry">
                        <mxPoint x="401" y="630" as="sourcePoint"/>
                        <mxPoint x="400" y="738.98" as="targetPoint"/>
                    </mxGeometry>
                </mxCell>
                <mxCell id="14" value="" style="endArrow=classic;html=1;fontSize=25;strokeWidth=3;entryX=0.43;entryY=-0.017;entryDx=0;entryDy=0;entryPerimeter=0;" edge="1" parent="1">
                    <mxGeometry width="50" height="50" relative="1" as="geometry">
                        <mxPoint x="401" y="800" as="sourcePoint"/>
                        <mxPoint x="400" y="908.98" as="targetPoint"/>
                    </mxGeometry>
                </mxCell>
                <mxCell id="15" value="" style="endArrow=classic;html=1;fontSize=25;strokeWidth=3;entryX=0.43;entryY=-0.017;entryDx=0;entryDy=0;entryPerimeter=0;" edge="1" parent="1">
                    <mxGeometry width="50" height="50" relative="1" as="geometry">
                        <mxPoint x="401" y="970" as="sourcePoint"/>
                        <mxPoint x="400" y="1078.98" as="targetPoint"/>
                    </mxGeometry>
                </mxCell>
                <mxCell id="16" value="" style="endArrow=classic;html=1;fontSize=25;strokeWidth=3;entryX=0.43;entryY=-0.017;entryDx=0;entryDy=0;entryPerimeter=0;" edge="1" parent="1">
                    <mxGeometry width="50" height="50" relative="1" as="geometry">
                        <mxPoint x="401" y="1140" as="sourcePoint"/>
                        <mxPoint x="400" y="1248.98" as="targetPoint"/>
                    </mxGeometry>
                </mxCell>
                <mxCell id="17" value="&lt;font color=&quot;#0000ff&quot; style=&quot;font-size: 22px;&quot;&gt;光学传感器、图像处理算法的数学建模和仿真&lt;br&gt;&lt;/font&gt;" style="text;html=1;align=center;verticalAlign=middle;resizable=0;points=[];autosize=1;strokeColor=none;fillColor=none;rotation=0;" vertex="1" parent="1">
                    <mxGeometry x="400" y="150" width="460" height="40" as="geometry"/>
                </mxCell>
                <mxCell id="18" value="&lt;font color=&quot;#0000ff&quot; style=&quot;font-size: 22px;&quot;&gt;分辨率、视场角、光谱范围等&lt;br&gt;&lt;/font&gt;" style="text;html=1;align=center;verticalAlign=middle;resizable=0;points=[];autosize=1;strokeColor=none;fillColor=none;rotation=0;" vertex="1" parent="1">
                    <mxGeometry x="400" y="320" width="310" height="40" as="geometry"/>
                </mxCell>
                <mxCell id="19" value="&lt;font color=&quot;#0000ff&quot; style=&quot;font-size: 22px;&quot;&gt;包括陆地、水域、目标物体等，模拟真实世界情况&lt;br&gt;&lt;/font&gt;" style="text;html=1;align=center;verticalAlign=middle;resizable=0;points=[];autosize=1;strokeColor=none;fillColor=none;rotation=0;" vertex="1" parent="1">
                    <mxGeometry x="400" y="500" width="510" height="40" as="geometry"/>
                </mxCell>
                <mxCell id="20" value="&lt;font color=&quot;#0000ff&quot; style=&quot;font-size: 22px;&quot;&gt;考虑光学传感器参数和虚拟环境中的光照条件等因素&lt;br&gt;&lt;/font&gt;" style="text;html=1;align=center;verticalAlign=middle;resizable=0;points=[];autosize=1;strokeColor=none;fillColor=none;rotation=0;" vertex="1" parent="1">
                    <mxGeometry x="390" y="660" width="530" height="40" as="geometry"/>
                </mxCell>
                <mxCell id="21" value="&lt;font color=&quot;#0000ff&quot; style=&quot;font-size: 22px;&quot;&gt;模拟光学传感器在虚拟环境中的各种噪声和干扰&lt;br&gt;&lt;/font&gt;" style="text;html=1;align=center;verticalAlign=middle;resizable=0;points=[];autosize=1;strokeColor=none;fillColor=none;rotation=0;" vertex="1" parent="1">
                    <mxGeometry x="400" y="840" width="490" height="40" as="geometry"/>
                </mxCell>
                <mxCell id="22" value="&lt;font color=&quot;#0000ff&quot; style=&quot;font-size: 22px;&quot;&gt;分析仿真结果，优化参数和算法，评估光电跟踪仪性能&lt;br&gt;&lt;/font&gt;" style="text;html=1;align=center;verticalAlign=middle;resizable=0;points=[];autosize=1;strokeColor=none;fillColor=none;rotation=0;" vertex="1" parent="1">
                    <mxGeometry x="400" y="1000" width="550" height="40" as="geometry"/>
                </mxCell>
                <mxCell id="23" value="&lt;font color=&quot;#0000ff&quot; style=&quot;font-size: 22px;&quot;&gt;在虚拟环境中模拟传感器数据传输与无人艇的接口&lt;br&gt;&lt;/font&gt;" style="text;html=1;align=center;verticalAlign=middle;resizable=0;points=[];autosize=1;strokeColor=none;fillColor=none;rotation=0;" vertex="1" parent="1">
                    <mxGeometry x="420" y="1170" width="510" height="40" as="geometry"/>
                </mxCell>
            </root>
        </mxGraphModel>
    </diagram>
</mxfile>